<svg width="170" height="48" viewBox="0 0 170 48" fill="none" xmlns="http://www.w3.org/2000/svg">
<rect width="170" height="48" rx="3" fill="#FF564F"/>
<path d="M49.5078 27.1094V29H44.7812V27.1094H49.5078ZM45.4844 17.625V29H43.1953V17.625H45.4844ZM59.3438 22.4297V24.3281C59.3438 25.1302 59.2448 25.8333 59.0469 26.4375C58.8542 27.0365 58.5781 27.5391 58.2188 27.9453C57.8646 28.3464 57.4349 28.6484 56.9297 28.8516C56.4297 29.0547 55.875 29.1562 55.2656 29.1562C54.6562 29.1562 54.099 29.0547 53.5938 28.8516C53.0938 28.6484 52.6615 28.3464 52.2969 27.9453C51.9375 27.5391 51.6589 27.0365 51.4609 26.4375C51.263 25.8333 51.1641 25.1302 51.1641 24.3281V22.4297C51.1641 21.6068 51.2604 20.888 51.4531 20.2734C51.6458 19.6536 51.9245 19.138 52.2891 18.7266C52.6536 18.3099 53.0859 17.9974 53.5859 17.7891C54.0859 17.5755 54.6406 17.4688 55.25 17.4688C55.8594 17.4688 56.4141 17.5755 56.9141 17.7891C57.4141 17.9974 57.8464 18.3099 58.2109 18.7266C58.5755 19.138 58.8542 19.6536 59.0469 20.2734C59.2448 20.888 59.3438 21.6068 59.3438 22.4297ZM57.0703 24.3281V22.4141C57.0703 21.8724 57.0312 21.4115 56.9531 21.0312C56.875 20.6458 56.7578 20.3307 56.6016 20.0859C56.4453 19.8411 56.2552 19.6615 56.0312 19.5469C55.8073 19.4323 55.5469 19.375 55.25 19.375C54.9531 19.375 54.6901 19.4323 54.4609 19.5469C54.237 19.6615 54.0469 19.8411 53.8906 20.0859C53.7396 20.3307 53.625 20.6458 53.5469 21.0312C53.474 21.4115 53.4375 21.8724 53.4375 22.4141V24.3281C53.4375 24.849 53.4766 25.2943 53.5547 25.6641C53.6328 26.0339 53.75 26.3359 53.9062 26.5703C54.0625 26.8047 54.2526 26.9792 54.4766 27.0938C54.7057 27.2031 54.9688 27.2578 55.2656 27.2578C55.5573 27.2578 55.8151 27.2031 56.0391 27.0938C56.2682 26.9792 56.4583 26.8047 56.6094 26.5703C56.7604 26.3359 56.875 26.0339 56.9531 25.6641C57.0312 25.2943 57.0703 24.849 57.0703 24.3281ZM65.9531 19.6562L63.5078 29H61.0938L64.6484 17.625H66.1562L65.9531 19.6562ZM67.8828 29L65.4219 19.6562L65.1953 17.625H66.7266L70.3125 29H67.8828ZM67.9688 24.7578V26.6562H62.8359V24.7578H67.9688ZM75.3672 29H73.3594L73.375 27.1094H75.3672C75.9193 27.1094 76.349 27.0104 76.6562 26.8125C76.9635 26.6146 77.1797 26.3021 77.3047 25.875C77.4349 25.4479 77.5 24.888 77.5 24.1953V22.4219C77.5 21.8958 77.4661 21.4505 77.3984 21.0859C77.3307 20.7161 77.2161 20.4193 77.0547 20.1953C76.8932 19.9661 76.6771 19.7969 76.4062 19.6875C76.1354 19.5781 75.7995 19.5234 75.3984 19.5234H73.3203V17.625H75.3984C76.0547 17.625 76.651 17.7318 77.1875 17.9453C77.724 18.1589 78.1849 18.4714 78.5703 18.8828C78.9557 19.2891 79.2526 19.7917 79.4609 20.3906C79.6693 20.9896 79.7734 21.6719 79.7734 22.4375V24.1953C79.7734 24.9661 79.6693 25.6484 79.4609 26.2422C79.2526 26.8359 78.9557 27.3385 78.5703 27.75C78.1901 28.1562 77.7292 28.4661 77.1875 28.6797C76.6458 28.8932 76.0391 29 75.3672 29ZM74.6875 17.625V29H72.3984V17.625H74.6875ZM87.9453 17.625H89.9531L92.2734 25.4062L94.5859 17.625H96.3594L93.125 29H91.4141L87.9453 17.625ZM87.1328 17.625H89.0469L89.3438 25.125V29H87.1328V17.625ZM95.4844 17.625H97.4062V29H95.2031V25.125L95.4844 17.625ZM108.266 22.4297V24.3281C108.266 25.1302 108.167 25.8333 107.969 26.4375C107.776 27.0365 107.5 27.5391 107.141 27.9453C106.786 28.3464 106.357 28.6484 105.852 28.8516C105.352 29.0547 104.797 29.1562 104.188 29.1562C103.578 29.1562 103.021 29.0547 102.516 28.8516C102.016 28.6484 101.583 28.3464 101.219 27.9453C100.859 27.5391 100.581 27.0365 100.383 26.4375C100.185 25.8333 100.086 25.1302 100.086 24.3281V22.4297C100.086 21.6068 100.182 20.888 100.375 20.2734C100.568 19.6536 100.846 19.138 101.211 18.7266C101.576 18.3099 102.008 17.9974 102.508 17.7891C103.008 17.5755 103.562 17.4688 104.172 17.4688C104.781 17.4688 105.336 17.5755 105.836 17.7891C106.336 17.9974 106.768 18.3099 107.133 18.7266C107.497 19.138 107.776 19.6536 107.969 20.2734C108.167 20.888 108.266 21.6068 108.266 22.4297ZM105.992 24.3281V22.4141C105.992 21.8724 105.953 21.4115 105.875 21.0312C105.797 20.6458 105.68 20.3307 105.523 20.0859C105.367 19.8411 105.177 19.6615 104.953 19.5469C104.729 19.4323 104.469 19.375 104.172 19.375C103.875 19.375 103.612 19.4323 103.383 19.5469C103.159 19.6615 102.969 19.8411 102.812 20.0859C102.661 20.3307 102.547 20.6458 102.469 21.0312C102.396 21.4115 102.359 21.8724 102.359 22.4141V24.3281C102.359 24.849 102.398 25.2943 102.477 25.6641C102.555 26.0339 102.672 26.3359 102.828 26.5703C102.984 26.8047 103.174 26.9792 103.398 27.0938C103.628 27.2031 103.891 27.2578 104.188 27.2578C104.479 27.2578 104.737 27.2031 104.961 27.0938C105.19 26.9792 105.38 26.8047 105.531 26.5703C105.682 26.3359 105.797 26.0339 105.875 25.6641C105.953 25.2943 105.992 24.849 105.992 24.3281ZM110.938 17.625H114.586C115.346 17.625 115.995 17.7552 116.531 18.0156C117.068 18.276 117.479 18.6615 117.766 19.1719C118.052 19.6823 118.195 20.3125 118.195 21.0625C118.195 21.6771 118.112 22.2031 117.945 22.6406C117.779 23.0729 117.542 23.4349 117.234 23.7266C116.927 24.013 116.56 24.2422 116.133 24.4141L115.438 24.8281H112.477L112.469 22.9297H114.523C114.836 22.9297 115.094 22.862 115.297 22.7266C115.505 22.5859 115.659 22.3906 115.758 22.1406C115.862 21.8854 115.914 21.5885 115.914 21.25C115.914 20.8906 115.867 20.5833 115.773 20.3281C115.685 20.0677 115.542 19.8698 115.344 19.7344C115.151 19.5938 114.898 19.5234 114.586 19.5234H113.227V29H110.938V17.625ZM116.102 29L114.016 23.9297L116.414 23.9219L118.547 28.8906V29H116.102ZM127.312 27.1094V29H122.367V27.1094H127.312ZM123.078 17.625V29H120.789V17.625H123.078ZM126.648 22.2344V24.0703H122.367V22.2344H126.648ZM127.297 17.625V19.5234H122.367V17.625H127.297Z" fill="white"/>
</svg>
