<svg width="78" height="6" viewBox="0 0 78 6" fill="none" xmlns="http://www.w3.org/2000/svg">
<path d="M3 6C4.65685 6 6 4.65685 6 3C6 1.34315 4.65685 0 3 0C1.34315 0 0 1.34315 0 3C0 4.65685 1.34315 6 3 6Z" fill="#9013FE"/>
<!-- <path opacity="0.303409" d="M27 6C28.6569 6 30 4.65685 30 3C30 1.34315 28.6569 0 27 0C25.3431 0 24 1.34315 24 3C24 4.65685 25.3431 6 27 6Z" fill="white"/>
<path opacity="0.303409" d="M51 6C52.6569 6 54 4.65685 54 3C54 1.34315 52.6569 0 51 0C49.3431 0 48 1.34315 48 3C48 4.65685 49.3431 6 51 6Z" fill="white"/>
<path opacity="0.303409" d="M75 6C76.6569 6 78 4.65685 78 3C78 1.34315 76.6569 0 75 0C73.3431 0 72 1.34315 72 3C72 4.65685 73.3431 6 75 6Z" fill="white"/> -->
</svg>
