<svg width="170" height="48" viewBox="0 0 170 48" fill="none" xmlns="http://www.w3.org/2000/svg">
<rect width="170" height="48" rx="3" fill="#FF564F"/>
<path d="M45.2656 27.1094V29H40.5391V27.1094H45.2656ZM41.2422 17.625V29H38.9531V17.625H41.2422ZM54.1328 27.1094V29H49.1875V27.1094H54.1328ZM49.8984 17.625V29H47.6094V17.625H49.8984ZM53.4688 22.2344V24.0703H49.1875V22.2344H53.4688ZM54.1172 17.625V19.5234H49.1875V17.625H54.1172ZM60.5859 19.6562L58.1406 29H55.7266L59.2812 17.625H60.7891L60.5859 19.6562ZM62.5156 29L60.0547 19.6562L59.8281 17.625H61.3594L64.9453 29H62.5156ZM62.6016 24.7578V26.6562H57.4688V24.7578H62.6016ZM67.0391 17.625H70.6875C71.4479 17.625 72.0964 17.7552 72.6328 18.0156C73.1693 18.276 73.5807 18.6615 73.8672 19.1719C74.1536 19.6823 74.2969 20.3125 74.2969 21.0625C74.2969 21.6771 74.2135 22.2031 74.0469 22.6406C73.8802 23.0729 73.6432 23.4349 73.3359 23.7266C73.0286 24.013 72.6615 24.2422 72.2344 24.4141L71.5391 24.8281H68.5781L68.5703 22.9297H70.625C70.9375 22.9297 71.1953 22.862 71.3984 22.7266C71.6068 22.5859 71.7604 22.3906 71.8594 22.1406C71.9635 21.8854 72.0156 21.5885 72.0156 21.25C72.0156 20.8906 71.9688 20.5833 71.875 20.3281C71.7865 20.0677 71.6432 19.8698 71.4453 19.7344C71.2526 19.5938 71 19.5234 70.6875 19.5234H69.3281V29H67.0391V17.625ZM72.2031 29L70.1172 23.9297L72.5156 23.9219L74.6484 28.8906V29H72.2031ZM84.8438 17.625V29H82.6328L79.0625 21.8828V29H76.8906V17.625H79.0703L82.6719 24.8203V17.625H84.8438ZM93.1875 17.625H95.1953L97.5156 25.4062L99.8281 17.625H101.602L98.3672 29H96.6562L93.1875 17.625ZM92.375 17.625H94.2891L94.5859 25.125V29H92.375V17.625ZM100.727 17.625H102.648V29H100.445V25.125L100.727 17.625ZM113.508 22.4297V24.3281C113.508 25.1302 113.409 25.8333 113.211 26.4375C113.018 27.0365 112.742 27.5391 112.383 27.9453C112.029 28.3464 111.599 28.6484 111.094 28.8516C110.594 29.0547 110.039 29.1562 109.43 29.1562C108.82 29.1562 108.263 29.0547 107.758 28.8516C107.258 28.6484 106.826 28.3464 106.461 27.9453C106.102 27.5391 105.823 27.0365 105.625 26.4375C105.427 25.8333 105.328 25.1302 105.328 24.3281V22.4297C105.328 21.6068 105.424 20.888 105.617 20.2734C105.81 19.6536 106.089 19.138 106.453 18.7266C106.818 18.3099 107.25 17.9974 107.75 17.7891C108.25 17.5755 108.805 17.4688 109.414 17.4688C110.023 17.4688 110.578 17.5755 111.078 17.7891C111.578 17.9974 112.01 18.3099 112.375 18.7266C112.74 19.138 113.018 19.6536 113.211 20.2734C113.409 20.888 113.508 21.6068 113.508 22.4297ZM111.234 24.3281V22.4141C111.234 21.8724 111.195 21.4115 111.117 21.0312C111.039 20.6458 110.922 20.3307 110.766 20.0859C110.609 19.8411 110.419 19.6615 110.195 19.5469C109.971 19.4323 109.711 19.375 109.414 19.375C109.117 19.375 108.854 19.4323 108.625 19.5469C108.401 19.6615 108.211 19.8411 108.055 20.0859C107.904 20.3307 107.789 20.6458 107.711 21.0312C107.638 21.4115 107.602 21.8724 107.602 22.4141V24.3281C107.602 24.849 107.641 25.2943 107.719 25.6641C107.797 26.0339 107.914 26.3359 108.07 26.5703C108.227 26.8047 108.417 26.9792 108.641 27.0938C108.87 27.2031 109.133 27.2578 109.43 27.2578C109.721 27.2578 109.979 27.2031 110.203 27.0938C110.432 26.9792 110.622 26.8047 110.773 26.5703C110.924 26.3359 111.039 26.0339 111.117 25.6641C111.195 25.2943 111.234 24.849 111.234 24.3281ZM116.18 17.625H119.828C120.589 17.625 121.237 17.7552 121.773 18.0156C122.31 18.276 122.721 18.6615 123.008 19.1719C123.294 19.6823 123.438 20.3125 123.438 21.0625C123.438 21.6771 123.354 22.2031 123.188 22.6406C123.021 23.0729 122.784 23.4349 122.477 23.7266C122.169 24.013 121.802 24.2422 121.375 24.4141L120.68 24.8281H117.719L117.711 22.9297H119.766C120.078 22.9297 120.336 22.862 120.539 22.7266C120.747 22.5859 120.901 22.3906 121 22.1406C121.104 21.8854 121.156 21.5885 121.156 21.25C121.156 20.8906 121.109 20.5833 121.016 20.3281C120.927 20.0677 120.784 19.8698 120.586 19.7344C120.393 19.5938 120.141 19.5234 119.828 19.5234H118.469V29H116.18V17.625ZM121.344 29L119.258 23.9297L121.656 23.9219L123.789 28.8906V29H121.344ZM132.555 27.1094V29H127.609V27.1094H132.555ZM128.32 17.625V29H126.031V17.625H128.32ZM131.891 22.2344V24.0703H127.609V22.2344H131.891ZM132.539 17.625V19.5234H127.609V17.625H132.539Z" fill="white"/>
</svg>
